<?xml version="1.0" encoding="UTF-8" standalone="no"?>
<!DOCTYPE svg PUBLIC "-//W3C//DTD SVG 1.1//EN" "http://www.w3.org/Graphics/SVG/1.1/DTD/svg11.dtd">
<svg width="100%" height="100%" viewBox="0 0 395 395" version="1.1" xmlns="http://www.w3.org/2000/svg" xmlns:xlink="http://www.w3.org/1999/xlink" xml:space="preserve" xmlns:serif="http://www.serif.com/" style="fill-rule:evenodd;clip-rule:evenodd;stroke-linejoin:round;stroke-miterlimit:2;">
    <g transform="matrix(0.416667,0,0,0.416667,-1043.6,19.5646)">
        <path d="M2691.05,729.14L2708.26,729.14C2708.72,729.14 2708.87,728.909 2708.72,728.46L2699.94,698.769C2699.86,698.46 2699.74,698.331 2699.59,698.359C2699.44,698.402 2699.32,698.53 2699.24,698.769L2690.58,728.46C2690.5,728.909 2690.66,729.14 2691.05,729.14ZM2716.45,754.671L2713.45,744.378C2713.3,744.081 2713.1,743.929 2712.88,743.929L2686.54,743.929C2686.31,743.929 2686.12,744.081 2685.96,744.378L2682.96,754.671C2682.73,755.429 2682.19,755.82 2681.34,755.82L2663.68,755.82C2663.22,755.82 2662.87,755.679 2662.63,755.409C2662.41,755.152 2662.37,754.749 2662.52,754.198L2687.23,676.128C2687.47,675.37 2687.96,674.98 2688.74,674.98L2710.56,674.98C2711.33,674.98 2711.83,675.37 2712.07,676.128L2736.89,754.198C2736.97,754.351 2737.01,754.55 2737.01,754.78C2737.01,755.468 2736.59,755.82 2735.74,755.82L2718.07,755.82C2717.22,755.82 2716.68,755.429 2716.45,754.671" style="fill:rgb(34,30,83);fill-rule:nonzero;"/>
    </g>
    <g transform="matrix(0.416667,0,0,0.416667,-1043.6,19.5646)">
        <path d="M2791.99,729.14L2809.19,729.14C2809.65,729.14 2809.81,728.909 2809.65,728.46L2800.87,698.769C2800.8,698.46 2800.68,698.331 2800.53,698.359C2800.38,698.402 2800.26,698.53 2800.18,698.769L2791.52,728.46C2791.44,728.909 2791.6,729.14 2791.99,729.14ZM2817.39,754.671L2814.39,744.378C2814.23,744.081 2814.04,743.929 2813.81,743.929L2787.48,743.929C2787.25,743.929 2787.06,744.081 2786.9,744.378L2783.9,754.671C2783.67,755.429 2783.13,755.82 2782.28,755.82L2764.61,755.82C2764.16,755.82 2763.8,755.679 2763.57,755.409C2763.34,755.152 2763.31,754.749 2763.46,754.198L2788.17,676.128C2788.4,675.37 2788.9,674.98 2789.67,674.98L2811.5,674.98C2812.27,674.98 2812.77,675.37 2813,676.128L2837.83,754.198C2837.91,754.351 2837.94,754.55 2837.94,754.78C2837.94,755.468 2837.52,755.82 2836.67,755.82L2819.01,755.82C2818.16,755.82 2817.62,755.429 2817.39,754.671" style="fill:rgb(34,30,83);fill-rule:nonzero;"/>
    </g>
    <g transform="matrix(0.416667,0,0,0.416667,-1043.6,19.5646)">
        <path d="M2867.56,755.409C2867.29,755.152 2867.15,754.82 2867.15,754.429L2867.15,676.37C2867.15,675.98 2867.29,675.652 2867.56,675.39C2867.83,675.12 2868.16,674.98 2868.54,674.98L2884.95,674.98C2885.33,674.98 2885.65,675.12 2885.92,675.39C2886.2,675.652 2886.33,675.98 2886.33,676.37L2886.33,738.851C2886.33,739.23 2886.52,739.409 2886.91,739.409L2923.75,739.409C2924.13,739.409 2924.46,739.55 2924.73,739.82C2925,740.101 2925.13,740.429 2925.13,740.8L2925.13,754.429C2925.13,754.82 2925,755.152 2924.73,755.409C2924.46,755.679 2924.13,755.82 2923.75,755.82L2868.54,755.82C2868.16,755.82 2867.83,755.679 2867.56,755.409" style="fill:rgb(34,30,83);fill-rule:nonzero;"/>
    </g>
    <g transform="matrix(0.416667,0,0,0.416667,-1043.6,19.5646)">
        <path d="M2993.38,737.171C2995.08,735.741 2995.92,733.691 2995.92,730.999C2995.92,728.378 2995.1,726.351 2993.44,724.921C2991.79,723.511 2989.38,722.788 2986.23,722.788L2973.87,722.788C2973.48,722.788 2973.3,722.991 2973.3,723.37L2973.3,738.73C2973.3,739.12 2973.48,739.312 2973.87,739.312L2986.23,739.312C2989.3,739.312 2991.69,738.589 2993.38,737.171ZM2973.3,691.948L2973.3,706.499C2973.3,706.89 2973.48,707.089 2973.87,707.089L2985.3,707.089C2988.46,707.089 2990.88,706.409 2992.57,705.062C2994.27,703.71 2995.12,701.82 2995.12,699.339C2995.12,696.812 2994.27,694.839 2992.57,693.46C2990.88,692.07 2988.46,691.378 2985.3,691.378L2973.87,691.378C2973.48,691.378 2973.3,691.57 2973.3,691.948ZM3004.58,714.472C3011.6,718.171 3015.1,724.339 3015.1,732.948C3015.1,740.652 3012.45,746.39 3007.13,750.159C3001.82,753.929 2994.85,755.82 2986.23,755.82L2955.5,755.82C2955.12,755.82 2954.79,755.679 2954.53,755.409C2954.25,755.152 2954.12,754.82 2954.12,754.429L2954.12,676.37C2954.12,675.98 2954.25,675.652 2954.53,675.39C2954.79,675.12 2955.12,674.98 2955.5,674.98L2985.3,674.98C2994.69,674.98 3001.8,676.761 3006.61,680.288C3011.42,683.831 3013.82,689.57 3013.82,697.499C3013.82,705.038 3010.75,710.472 3004.58,713.788C3004.13,714.011 3004.13,714.241 3004.58,714.472" style="fill:rgb(34,30,83);fill-rule:nonzero;"/>
    </g>
    <g transform="matrix(0.416667,0,0,0.416667,-1043.6,19.7108)">
        <path d="M3085.26,736.758C3087.52,734.379 3088.66,731.168 3088.66,727.168L3088.66,703.258C3088.66,699.34 3087.52,696.168 3085.26,693.738C3082.98,691.308 3080,690.097 3076.3,690.097C3072.68,690.097 3069.74,691.308 3067.47,693.738C3065.2,696.168 3064.06,699.34 3064.06,703.258L3064.06,727.168C3064.06,731.168 3065.2,734.379 3067.47,736.758C3069.74,739.14 3072.68,740.34 3076.3,740.34C3080,740.34 3082.98,739.14 3085.26,736.758ZM3059.85,752.988C3055.11,750.488 3051.43,746.961 3048.81,742.418C3046.2,737.871 3044.89,732.597 3044.89,726.597L3044.89,703.5C3044.89,697.66 3046.2,692.469 3048.81,687.969C3051.43,683.461 3055.11,679.961 3059.85,677.461C3064.58,674.961 3070.06,673.711 3076.3,673.711C3082.54,673.711 3088.04,674.961 3092.82,677.461C3097.59,679.961 3101.28,683.461 3103.9,687.969C3106.52,692.469 3107.83,697.66 3107.83,703.5L3107.83,726.597C3107.83,732.597 3106.52,737.871 3103.9,742.418C3101.28,746.961 3097.59,750.488 3092.82,752.988C3088.04,755.488 3082.54,756.738 3076.3,756.738C3070.06,756.738 3064.58,755.488 3059.85,752.988" style="fill:rgb(34,30,83);fill-rule:nonzero;"/>
    </g>
    <g transform="matrix(0.416667,0,0,0.416667,-1043.6,19.5646)">
        <path d="M3157.84,691.948L3157.84,708.359C3157.84,708.741 3158.02,708.929 3158.41,708.929L3171.23,708.929C3174.08,708.929 3176.38,708.14 3178.16,706.562C3179.93,704.991 3180.82,702.89 3180.82,700.269C3180.82,697.581 3179.93,695.421 3178.16,693.812C3176.38,692.191 3174.08,691.378 3171.23,691.378L3158.41,691.378C3158.02,691.378 3157.84,691.57 3157.84,691.948ZM3180.36,754.78L3166.72,724.062C3166.57,723.749 3166.34,723.589 3166.03,723.589L3158.41,723.589C3158.02,723.589 3157.84,723.788 3157.84,724.179L3157.84,754.429C3157.84,754.82 3157.7,755.152 3157.43,755.409C3157.15,755.679 3156.83,755.82 3156.45,755.82L3140.04,755.82C3139.66,755.82 3139.33,755.679 3139.07,755.409C3138.79,755.152 3138.66,754.82 3138.66,754.429L3138.66,676.37C3138.66,675.98 3138.79,675.652 3139.07,675.39C3139.33,675.12 3139.66,674.98 3140.04,674.98L3174.35,674.98C3179.43,674.98 3183.89,676.011 3187.74,678.089C3191.6,680.179 3194.58,683.12 3196.69,686.929C3198.81,690.741 3199.87,695.12 3199.87,700.038C3199.87,705.191 3198.6,709.671 3196.06,713.441C3193.52,717.21 3189.98,719.941 3185.43,721.64C3185.04,721.8 3184.94,722.062 3185.08,722.441L3200.33,754.198C3200.48,754.511 3200.56,754.749 3200.56,754.902C3200.56,755.511 3200.14,755.82 3199.29,755.82L3181.97,755.82C3181.2,755.82 3180.66,755.468 3180.36,754.78" style="fill:rgb(34,30,83);fill-rule:nonzero;"/>
    </g>
    <g transform="matrix(0.416667,0,0,0.416667,-1043.6,19.5658)">
        <path d="M3243.81,753.047C3239.16,750.586 3235.54,747.117 3232.96,742.656C3230.38,738.176 3229.09,733.027 3229.09,727.176L3229.09,703.508C3229.09,697.656 3230.38,692.516 3232.96,688.086C3235.54,683.656 3239.16,680.207 3243.81,677.746C3248.47,675.285 3253.88,674.059 3260.04,674.059C3266.12,674.059 3271.51,675.227 3276.21,677.578C3280.9,679.918 3284.55,683.137 3287.12,687.227C3289.7,691.309 3290.99,695.797 3290.99,700.727L3290.99,701.309C3290.99,701.695 3290.85,702.016 3290.59,702.277C3290.32,702.559 3289.99,702.688 3289.6,702.688L3273.21,702.688C3272.82,702.688 3272.5,702.559 3272.22,702.277C3271.96,702.016 3271.82,701.695 3271.82,701.309C3271.82,698.297 3270.76,695.738 3268.65,693.625C3266.53,691.508 3263.66,690.445 3260.04,690.445C3256.5,690.445 3253.65,691.606 3251.5,693.926C3249.34,696.227 3248.26,699.238 3248.26,702.926L3248.26,727.746C3248.26,731.438 3249.46,734.445 3251.84,736.758C3254.22,739.078 3257.23,740.227 3260.84,740.227C3264.23,740.227 3266.97,739.328 3269.05,737.516C3271.13,735.695 3272.16,733.176 3272.16,729.945L3272.16,726.715C3272.16,726.328 3271.98,726.137 3271.59,726.137L3260.04,726.137C3259.65,726.137 3259.33,726.008 3259.06,725.738C3258.78,725.465 3258.66,725.137 3258.66,724.758L3258.66,712.047C3258.66,711.656 3258.78,711.336 3259.06,711.067C3259.33,710.797 3259.65,710.656 3260.04,710.656L3289.6,710.656C3289.99,710.656 3290.32,710.797 3290.59,711.067C3290.85,711.336 3290.99,711.656 3290.99,712.047L3290.99,727.746C3290.99,733.527 3289.7,738.606 3287.12,743.008C3284.55,747.375 3280.92,750.777 3276.26,753.156C3271.61,755.547 3266.2,756.738 3260.04,756.738C3253.88,756.738 3248.47,755.508 3243.81,753.047" style="fill:rgb(34,30,83);fill-rule:nonzero;"/>
    </g>
    <g transform="matrix(0.416667,0,0,0.416667,-1043.6,140.248)">
        <path d="M2588.55,607.941C2583.89,605.59 2580.27,602.262 2577.69,597.961C2575.11,593.64 2573.82,588.68 2573.82,583.051L2573.82,531.082C2573.82,530.699 2573.96,530.379 2574.23,530.109C2574.5,529.832 2574.83,529.699 2575.21,529.699L2591.61,529.699C2592,529.699 2592.32,529.832 2592.59,530.109C2592.86,530.379 2592.99,530.699 2592.99,531.082L2592.99,583.051C2592.99,586.672 2594.06,589.578 2596.17,591.781C2598.29,593.969 2601.12,595.07 2604.66,595.07C2608.12,595.07 2610.91,593.969 2613.03,591.781C2615.15,589.578 2616.21,586.672 2616.21,583.051L2616.21,531.082C2616.21,530.699 2616.34,530.379 2616.62,530.109C2616.88,529.832 2617.21,529.699 2617.59,529.699L2633.99,529.699C2634.38,529.699 2634.7,529.832 2634.98,530.109C2635.24,530.379 2635.38,530.699 2635.38,531.082L2635.38,583.051C2635.38,588.68 2634.11,593.64 2631.57,597.961C2629.03,602.262 2625.42,605.59 2620.77,607.941C2616.11,610.289 2610.74,611.461 2604.66,611.461C2598.58,611.461 2593.21,610.289 2588.55,607.941" style="fill:rgb(34,30,83);fill-rule:nonzero;"/>
    </g>
    <g transform="matrix(0.416667,0,0,0.416667,-1043.6,139.864)">
        <path d="M2713.28,531.031C2713.54,530.754 2713.87,530.621 2714.25,530.621L2730.66,530.621C2731.04,530.621 2731.36,530.754 2731.64,531.031C2731.91,531.301 2732.04,531.621 2732.04,532.004L2732.04,610.07C2732.04,610.461 2731.91,610.793 2731.64,611.051C2731.36,611.332 2731.04,611.461 2730.66,611.461L2714.95,611.461C2714.17,611.461 2713.64,611.152 2713.33,610.543L2686.77,566.422C2686.62,566.191 2686.46,566.094 2686.3,566.133C2686.15,566.172 2686.08,566.344 2686.08,566.652L2686.2,610.07C2686.2,610.461 2686.06,610.793 2685.79,611.051C2685.51,611.332 2685.19,611.461 2684.81,611.461L2668.4,611.461C2668.02,611.461 2667.69,611.332 2667.43,611.051C2667.15,610.793 2667.02,610.461 2667.02,610.07L2667.02,532.004C2667.02,531.621 2667.15,531.301 2667.43,531.031C2667.69,530.754 2668.02,530.621 2668.4,530.621L2684.23,530.621C2685,530.621 2685.53,530.934 2685.84,531.543L2712.29,575.543C2712.45,575.773 2712.6,575.871 2712.75,575.832C2712.91,575.793 2712.98,575.621 2712.98,575.312L2712.87,532.004C2712.87,531.621 2713,531.301 2713.28,531.031" style="fill:rgb(34,30,83);fill-rule:nonzero;"/>
    </g>
    <g transform="matrix(0.416667,0,0,0.416667,-1043.6,139.864)">
        <path d="M2764.66,611.051C2764.39,610.793 2764.25,610.461 2764.25,610.07L2764.25,532.004C2764.25,531.621 2764.39,531.301 2764.66,531.031C2764.93,530.754 2765.26,530.621 2765.64,530.621L2782.05,530.621C2782.43,530.621 2782.75,530.754 2783.02,531.031C2783.3,531.301 2783.43,531.621 2783.43,532.004L2783.43,610.07C2783.43,610.461 2783.3,610.793 2783.02,611.051C2782.75,611.332 2782.43,611.461 2782.05,611.461L2765.64,611.461C2765.26,611.461 2764.93,611.332 2764.66,611.051" style="fill:rgb(34,30,83);fill-rule:nonzero;"/>
    </g>
    <g transform="matrix(0.416667,0,0,0.416667,-1043.6,139.864)">
        <path d="M2836.21,610.301L2812.89,532.242L2812.77,531.773C2812.77,531.012 2813.19,530.621 2814.04,530.621L2831.7,530.621C2832.55,530.621 2833.09,531.012 2833.33,531.773L2846.61,584.332C2846.68,584.551 2846.79,584.672 2846.95,584.672C2847.1,584.672 2847.22,584.551 2847.3,584.332L2860.35,531.773C2860.58,531.012 2861.12,530.621 2861.97,530.621L2879.29,530.621C2879.75,530.621 2880.09,530.773 2880.33,531.082C2880.56,531.402 2880.59,531.773 2880.44,532.242L2856.76,610.301C2856.54,611.07 2856.03,611.461 2855.27,611.461L2837.71,611.461C2836.94,611.461 2836.44,611.07 2836.21,610.301" style="fill:rgb(34,30,83);fill-rule:nonzero;"/>
    </g>
    <g transform="matrix(0.416667,0,0,0.416667,-1043.6,139.864)">
        <path d="M2966.3,546.613C2966.03,546.883 2965.7,547.023 2965.32,547.023L2929.06,547.023C2928.67,547.023 2928.48,547.223 2928.48,547.602L2928.48,561.812C2928.48,562.191 2928.67,562.371 2929.06,562.371L2952.27,562.371C2952.65,562.371 2952.97,562.512 2953.25,562.781C2953.52,563.062 2953.66,563.383 2953.66,563.762L2953.66,577.281C2953.66,577.672 2953.52,577.992 2953.25,578.254C2952.97,578.531 2952.65,578.66 2952.27,578.66L2929.06,578.66C2928.67,578.66 2928.48,578.863 2928.48,579.242L2928.48,594.48C2928.48,594.871 2928.67,595.062 2929.06,595.062L2965.32,595.062C2965.7,595.062 2966.03,595.203 2966.3,595.461C2966.57,595.73 2966.7,596.062 2966.7,596.453L2966.7,610.07C2966.7,610.461 2966.57,610.793 2966.3,611.051C2966.03,611.332 2965.7,611.461 2965.32,611.461L2910.69,611.461C2910.31,611.461 2909.98,611.332 2909.71,611.051C2909.44,610.793 2909.3,610.461 2909.3,610.07L2909.3,532.004C2909.3,531.621 2909.44,531.301 2909.71,531.031C2909.98,530.754 2910.31,530.621 2910.69,530.621L2965.32,530.621C2965.7,530.621 2966.03,530.754 2966.3,531.031C2966.57,531.301 2966.7,531.621 2966.7,532.004L2966.7,545.633C2966.7,546.031 2966.57,546.352 2966.3,546.613" style="fill:rgb(34,30,83);fill-rule:nonzero;"/>
    </g>
    <g transform="matrix(0.416667,0,0,0.416667,-1043.6,139.864)">
        <path d="M3015.9,547.602L3015.9,563.992C3015.9,564.383 3016.09,564.57 3016.48,564.57L3029.29,564.57C3032.14,564.57 3034.45,563.781 3036.23,562.211C3037.99,560.633 3038.88,558.531 3038.88,555.91C3038.88,553.211 3037.99,551.062 3036.23,549.441C3034.45,547.82 3032.14,547.023 3029.29,547.023L3016.48,547.023C3016.09,547.023 3015.9,547.223 3015.9,547.602ZM3038.42,610.422L3024.79,579.703C3024.63,579.391 3024.41,579.242 3024.1,579.242L3016.48,579.242C3016.09,579.242 3015.9,579.434 3015.9,579.812L3015.9,610.07C3015.9,610.461 3015.77,610.793 3015.49,611.051C3015.22,611.332 3014.9,611.461 3014.52,611.461L2998.11,611.461C2997.73,611.461 2997.4,611.332 2997.13,611.051C2996.86,610.793 2996.72,610.461 2996.72,610.07L2996.72,532.004C2996.72,531.621 2996.86,531.301 2997.13,531.031C2997.4,530.754 2997.73,530.621 2998.11,530.621L3032.42,530.621C3037.5,530.621 3041.96,531.66 3045.81,533.742C3049.66,535.812 3052.64,538.762 3054.76,542.57C3056.88,546.383 3057.93,550.754 3057.93,555.672C3057.93,560.844 3056.67,565.301 3054.13,569.07C3051.59,572.852 3048.04,575.582 3043.5,577.281C3043.11,577.434 3043,577.711 3043.15,578.094L3058.39,609.844C3058.55,610.152 3058.63,610.383 3058.63,610.543C3058.63,611.152 3058.21,611.461 3057.36,611.461L3040.03,611.461C3039.26,611.461 3038.73,611.113 3038.42,610.422" style="fill:rgb(34,30,83);fill-rule:nonzero;"/>
    </g>
    <g transform="matrix(0.416667,0,0,0.416667,-1043.6,139.865)">
        <path d="M3101.07,609.328C3096.34,607.289 3092.68,604.359 3090.1,600.547C3087.52,596.726 3086.24,592.328 3086.24,587.316L3086.24,585.129C3086.24,584.746 3086.36,584.418 3086.64,584.148C3086.91,583.879 3087.23,583.738 3087.62,583.738L3103.67,583.738C3104.06,583.738 3104.38,583.879 3104.65,584.148C3104.93,584.418 3105.05,584.746 3105.05,585.129L3105.05,586.508C3105.05,589.047 3106.32,591.269 3108.87,593.148C3111.41,595.047 3114.84,595.988 3119.15,595.988C3122.53,595.988 3125.03,595.25 3126.66,593.789C3128.27,592.328 3129.08,590.629 3129.08,588.707C3129.08,587.168 3128.6,585.918 3127.63,584.949C3126.67,583.988 3125.39,583.18 3123.76,582.527C3122.15,581.867 3119.64,580.969 3116.25,579.808C3115.8,579.578 3115.34,579.406 3114.88,579.297C3114.41,579.18 3113.99,579.047 3113.6,578.898C3108.6,577.277 3104.25,575.527 3100.55,573.637C3096.86,571.746 3093.7,569.129 3091.08,565.789C3088.46,562.43 3087.15,558.289 3087.15,553.367C3087.15,548.598 3088.4,544.418 3090.91,540.84C3093.41,537.258 3096.9,534.5 3101.36,532.59C3105.83,530.648 3110.87,529.699 3116.49,529.699C3122.42,529.699 3127.75,530.769 3132.49,532.93C3137.22,535.09 3140.93,538.117 3143.63,542.047C3146.32,545.988 3147.67,550.476 3147.67,555.566L3147.67,557.18C3147.67,557.566 3147.53,557.898 3147.27,558.156C3147,558.43 3146.67,558.558 3146.28,558.558L3130.23,558.558C3129.85,558.558 3129.52,558.43 3129.25,558.156C3128.98,557.898 3128.85,557.566 3128.85,557.18L3128.85,556.379C3128.85,553.68 3127.65,551.289 3125.27,549.207C3122.88,547.137 3119.68,546.09 3115.68,546.09C3112.68,546.09 3110.33,546.707 3108.64,547.937C3106.94,549.168 3106.1,550.906 3106.1,553.129C3106.1,554.828 3106.64,556.238 3107.71,557.348C3108.79,558.469 3110.46,559.508 3112.74,560.476C3115,561.437 3118.49,562.687 3123.19,564.226C3128.58,566.066 3132.78,567.687 3135.78,569.066C3138.78,570.457 3141.61,572.707 3144.26,575.828C3146.92,578.957 3148.25,583.058 3148.25,588.129C3148.25,593.129 3146.98,597.449 3144.44,601.058C3141.9,604.687 3138.33,607.469 3133.75,609.437C3129.17,611.398 3123.84,612.379 3117.76,612.379C3111.37,612.379 3105.81,611.359 3101.07,609.328" style="fill:rgb(34,30,83);fill-rule:nonzero;"/>
    </g>
    <g transform="matrix(0.416667,0,0,0.416667,-1043.6,139.864)">
        <path d="M3178.79,611.051C3178.52,610.793 3178.38,610.461 3178.38,610.07L3178.38,532.004C3178.38,531.621 3178.52,531.301 3178.79,531.031C3179.06,530.754 3179.39,530.621 3179.77,530.621L3196.18,530.621C3196.56,530.621 3196.88,530.754 3197.15,531.031C3197.43,531.301 3197.56,531.621 3197.56,532.004L3197.56,610.07C3197.56,610.461 3197.43,610.793 3197.15,611.051C3196.88,611.332 3196.56,611.461 3196.18,611.461L3179.77,611.461C3179.39,611.461 3179.06,611.332 3178.79,611.051" style="fill:rgb(34,30,83);fill-rule:nonzero;"/>
    </g>
    <g transform="matrix(0.416667,0,0,0.416667,-1043.6,139.864)">
        <path d="M3289.2,531.031C3289.47,531.301 3289.6,531.621 3289.6,532.004L3289.6,545.754C3289.6,546.133 3289.47,546.461 3289.2,546.73C3288.93,547.004 3288.61,547.141 3288.22,547.141L3268.01,547.141C3267.62,547.141 3267.44,547.332 3267.44,547.711L3267.44,610.07C3267.44,610.461 3267.3,610.793 3267.03,611.051C3266.76,611.332 3266.43,611.461 3266.05,611.461L3249.65,611.461C3249.26,611.461 3248.94,611.332 3248.67,611.051C3248.39,610.793 3248.27,610.461 3248.27,610.07L3248.27,547.711C3248.27,547.332 3248.07,547.141 3247.68,547.141L3228.17,547.141C3227.78,547.141 3227.46,547.004 3227.18,546.73C3226.92,546.461 3226.78,546.133 3226.78,545.754L3226.78,532.004C3226.78,531.621 3226.92,531.301 3227.18,531.031C3227.46,530.754 3227.78,530.621 3228.17,530.621L3288.22,530.621C3288.61,530.621 3288.93,530.754 3289.2,531.031" style="fill:rgb(34,30,83);fill-rule:nonzero;"/>
    </g>
    <g transform="matrix(0.416667,0,0,0.416667,-1043.6,139.767)">
        <path d="M3340.48,611.063C3340.21,610.793 3340.07,610.454 3340.07,610.075L3340.07,582.704C3340.07,582.403 3340.03,582.165 3339.96,582.024L3316.28,532.473C3316.13,532.153 3316.05,531.934 3316.05,531.774C3316.05,531.165 3316.48,530.852 3317.33,530.852L3335.11,530.852C3335.87,530.852 3336.42,531.204 3336.72,531.891L3349.31,561.114C3349.55,561.575 3349.78,561.575 3350,561.114L3362.71,531.891C3363.02,531.204 3363.56,530.852 3364.33,530.852L3382.23,530.852C3382.77,530.852 3383.13,530.985 3383.33,531.262C3383.52,531.532 3383.5,531.934 3383.27,532.473L3359.24,582.024C3359.17,582.165 3359.14,582.403 3359.14,582.704L3359.14,610.075C3359.14,610.454 3359,610.793 3358.73,611.063C3358.45,611.325 3358.13,611.461 3357.75,611.461L3341.46,611.461C3341.08,611.461 3340.75,611.325 3340.48,611.063" style="fill:rgb(34,30,83);fill-rule:nonzero;"/>
    </g>
    <g transform="matrix(0.416667,0,0,0.416667,-1043.6,-392.736)">
        <path d="M3234.76,1355.55C3220.94,1349.26 3207.06,1346.63 3183.46,1329.89C3123.44,1287.32 3096.43,1238.02 3134.87,1133.69C3157.05,1073.52 3165.54,1028.87 3164.23,970.481C3163.42,969.911 3161.13,968.351 3160.44,967.781C3148.48,1040.34 3128.47,1076.12 3083.46,1149.22C2981.57,1314.69 3077.37,1415.98 3122.64,1452.54C3164.55,1432.4 3208.41,1397.48 3234.76,1355.55" style="fill:rgb(34,30,83);fill-rule:nonzero;"/>
    </g>
    <g transform="matrix(0.416667,0,0,0.416667,-1043.6,-387.164)">
        <path d="M3035.2,1130.17C3106.25,1040.4 3135.37,1002.82 3141.66,942.538C3140.85,942.098 3138.67,940.928 3137.87,940.488C3118.63,1013.34 3078.8,1045.18 2959.92,1127.42C2836.31,1212.92 2840.69,1341.74 2874.37,1435.72C2912.59,1455.33 2955.84,1466.46 3001.73,1466.46C3011.51,1466.46 3021.17,1465.95 3030.7,1464.97C2945.69,1328.97 2952.33,1234.89 3035.2,1130.17" style="fill:rgb(34,30,83);fill-rule:nonzero;"/>
    </g>
    <g transform="matrix(0.416667,0,0,0.416667,-1043.6,-434.331)">
        <path d="M2986.79,1175.21C3067.41,1135.29 3103.15,1095.44 3118.95,1044.01C3118.25,1043.66 3115.19,1042.3 3115.17,1042.34C3069.52,1120.58 3012.84,1126.34 2883.87,1147.89C2809.8,1160.27 2769.5,1192.62 2727.94,1238.21C2724.1,1254.56 2721.38,1280.72 2721.4,1298.1C2721.5,1365.25 2744.43,1428.67 2785.72,1477.85C2788.03,1267.71 2886.08,1225.08 2986.79,1175.21" style="fill:rgb(34,30,83);fill-rule:nonzero;"/>
    </g>
</svg>
