<?xml version="1.0" encoding="UTF-8" standalone="no"?>
<!DOCTYPE svg PUBLIC "-//W3C//DTD SVG 1.1//EN" "http://www.w3.org/Graphics/SVG/1.1/DTD/svg11.dtd">
<svg width="100%" height="100%" viewBox="0 0 241 241" version="1.1" xmlns="http://www.w3.org/2000/svg" xmlns:xlink="http://www.w3.org/1999/xlink" xml:space="preserve" xmlns:serif="http://www.serif.com/" style="fill-rule:evenodd;clip-rule:evenodd;stroke-linejoin:round;stroke-miterlimit:2;">
    <g transform="matrix(4.16667,0,0,4.16667,23.6083,18.2611)">
        <path d="M8.474,24.694L0,24.694L24.007,0.686L24.007,9.185L8.474,24.694Z" style="fill:rgb(5,66,142);fill-rule:nonzero;"/>
    </g>
    <g transform="matrix(4.16667,0,0,4.16667,23.6083,18.2611)">
        <path d="M48.014,12.69C48.014,14.355 47.702,15.915 47.078,17.372C46.454,18.828 45.597,20.096 44.509,21.177C43.42,22.257 42.148,23.113 40.692,23.745C39.235,24.378 37.675,24.694 36.011,24.694C34.906,24.694 33.841,24.55 32.818,24.261C31.793,23.973 30.837,23.569 29.949,23.049C29.06,22.529 28.252,21.905 27.524,21.177C26.795,20.449 26.171,19.64 25.651,18.752C25.131,17.863 24.727,16.908 24.439,15.883C24.151,14.859 24.007,13.794 24.007,12.69L30.009,12.69C30.009,13.506 30.168,14.278 30.489,15.007C30.809,15.735 31.241,16.371 31.785,16.915C32.329,17.46 32.965,17.892 33.694,18.212C34.422,18.532 35.194,18.692 36.011,18.692C36.842,18.692 37.623,18.532 38.351,18.212C39.079,17.892 39.716,17.46 40.26,16.915C40.804,16.371 41.232,15.735 41.544,15.007C41.856,14.278 42.012,13.506 42.012,12.69L48.014,12.69Z" style="fill:rgb(5,66,142);fill-rule:nonzero;"/>
    </g>
    <g transform="matrix(4.16667,0,0,4.16667,-245.45,115.014)">
        <path d="M64.073,9.893L62.483,6.469L61.001,9.893L64.073,9.893ZM62.471,4.626L66.257,12.69L65.368,12.69L64.425,10.661L60.672,10.661L59.794,12.69L58.906,12.69L62.471,4.626Z" style="fill:rgb(5,66,142);fill-rule:nonzero;"/>
    </g>
    <g transform="matrix(4.16667,0,0,4.16667,-245.45,115.014)">
        <path d="M71.814,9.893L70.223,6.469L68.742,9.893L71.814,9.893ZM70.212,4.626L73.998,12.69L73.109,12.69L72.165,10.661L68.413,10.661L67.535,12.69L66.646,12.69L70.212,4.626Z" style="fill:rgb(5,66,142);fill-rule:nonzero;"/>
    </g>
    <g transform="matrix(4.16667,0,0,4.16667,-245.45,115.014)">
        <path d="M77.4,8.686C77.67,8.686 77.911,8.647 78.124,8.57C78.336,8.494 78.511,8.389 78.651,8.258C78.789,8.126 78.895,7.972 78.969,7.797C79.042,7.621 79.078,7.435 79.078,7.237C79.078,7.04 79.042,6.852 78.969,6.672C78.895,6.493 78.789,6.337 78.651,6.206C78.511,6.074 78.336,5.97 78.124,5.893C77.911,5.816 77.67,5.778 77.4,5.778L75.611,5.778L75.611,8.686L77.4,8.686ZM74.788,5.01L77.454,5.01C77.835,5.01 78.177,5.068 78.48,5.186C78.784,5.303 79.04,5.461 79.248,5.663C79.457,5.864 79.618,6.1 79.731,6.371C79.845,6.641 79.901,6.93 79.901,7.237C79.901,7.523 79.854,7.792 79.759,8.044C79.663,8.296 79.525,8.519 79.342,8.713C79.159,8.907 78.937,9.068 78.678,9.196C78.418,9.324 78.124,9.406 77.795,9.443L80.011,12.69L79.012,12.69L76.818,9.454L75.611,9.454L75.611,12.69L74.788,12.69L74.788,5.01Z" style="fill:rgb(5,66,142);fill-rule:nonzero;"/>
    </g>
    <g transform="matrix(4.16667,0,0,4.16667,-245.45,115.014)">
        <path d="M81.233,5.01L82.055,5.01L82.055,8.302L86.115,8.302L86.115,5.01L86.938,5.01L86.938,12.69L86.115,12.69L86.115,9.07L82.055,9.07L82.055,12.69L81.233,12.69L81.233,5.01Z" style="fill:rgb(5,66,142);fill-rule:nonzero;"/>
    </g>
    <g transform="matrix(4.16667,0,0,4.16667,-245.45,115.014)">
        <path d="M88.581,5.01L89.415,5.01L89.415,9.915C89.415,10.324 89.473,10.668 89.59,10.946C89.707,11.224 89.859,11.447 90.046,11.615C90.232,11.784 90.444,11.904 90.682,11.977C90.92,12.05 91.159,12.087 91.401,12.087C91.642,12.087 91.882,12.05 92.119,11.977C92.357,11.904 92.569,11.784 92.756,11.615C92.942,11.447 93.094,11.224 93.211,10.946C93.328,10.668 93.386,10.324 93.386,9.915L93.386,5.01L94.22,5.01L94.22,10.035C94.22,10.503 94.14,10.913 93.979,11.264C93.818,11.615 93.604,11.91 93.337,12.147C93.07,12.385 92.768,12.563 92.432,12.68C92.095,12.796 91.752,12.855 91.401,12.855C91.05,12.855 90.706,12.796 90.369,12.68C90.033,12.563 89.731,12.385 89.464,12.147C89.197,11.91 88.983,11.615 88.822,11.264C88.661,10.913 88.581,10.503 88.581,10.035L88.581,5.01Z" style="fill:rgb(5,66,142);fill-rule:nonzero;"/>
    </g>
    <g transform="matrix(4.16667,0,0,4.16667,-245.45,115.014)">
        <path d="M96.219,10.441C96.219,10.675 96.257,10.893 96.334,11.094C96.41,11.296 96.518,11.469 96.657,11.615C96.796,11.762 96.963,11.877 97.157,11.961C97.35,12.045 97.568,12.087 97.809,12.087C98.051,12.087 98.272,12.048 98.473,11.972C98.674,11.895 98.848,11.787 98.994,11.648C99.14,11.509 99.254,11.346 99.334,11.16C99.415,10.973 99.455,10.771 99.455,10.551C99.455,10.346 99.411,10.167 99.324,10.013C99.236,9.859 99.118,9.726 98.972,9.613C98.826,9.5 98.656,9.397 98.462,9.306C98.268,9.214 98.069,9.128 97.864,9.048C97.579,8.938 97.304,8.827 97.041,8.713C96.778,8.6 96.546,8.462 96.345,8.302C96.143,8.141 95.981,7.949 95.856,7.726C95.732,7.502 95.67,7.219 95.67,6.875C95.67,6.59 95.723,6.323 95.829,6.074C95.935,5.826 96.081,5.61 96.268,5.427C96.454,5.244 96.679,5.102 96.943,4.999C97.206,4.897 97.495,4.845 97.809,4.845C98.131,4.845 98.426,4.9 98.693,5.01C98.96,5.12 99.188,5.27 99.378,5.46C99.569,5.65 99.715,5.875 99.817,6.135C99.92,6.394 99.971,6.678 99.971,6.985L99.126,6.985C99.126,6.568 99.003,6.235 98.759,5.986C98.513,5.738 98.197,5.613 97.809,5.613C97.422,5.613 97.105,5.729 96.86,5.959C96.615,6.19 96.492,6.495 96.492,6.875C96.492,7.08 96.54,7.254 96.636,7.397C96.73,7.539 96.855,7.664 97.009,7.77C97.162,7.876 97.339,7.971 97.54,8.055C97.741,8.139 97.952,8.225 98.172,8.313C98.449,8.422 98.715,8.536 98.967,8.653C99.22,8.77 99.442,8.911 99.636,9.075C99.83,9.24 99.986,9.439 100.103,9.673C100.22,9.907 100.279,10.2 100.279,10.551C100.279,10.895 100.215,11.208 100.087,11.489C99.958,11.771 99.782,12.014 99.559,12.219C99.336,12.423 99.075,12.581 98.775,12.69C98.475,12.8 98.153,12.855 97.809,12.855C97.466,12.855 97.147,12.794 96.855,12.674C96.562,12.553 96.308,12.385 96.092,12.169C95.876,11.954 95.706,11.699 95.582,11.407C95.457,11.114 95.395,10.792 95.395,10.441L96.219,10.441Z" style="fill:rgb(5,66,142);fill-rule:nonzero;"/>
    </g>
    <g transform="matrix(4.16667,0,0,4.16667,-245.45,115.014)">
        <path d="M59.652,16.936L60.486,16.936L60.486,21.841C60.486,22.25 60.544,22.594 60.661,22.872C60.778,23.15 60.93,23.373 61.116,23.542C61.303,23.71 61.515,23.831 61.753,23.903C61.99,23.977 62.23,24.013 62.471,24.013C62.713,24.013 62.952,23.977 63.19,23.903C63.428,23.831 63.64,23.71 63.826,23.542C64.013,23.373 64.165,23.15 64.282,22.872C64.399,22.594 64.457,22.25 64.457,21.841L64.457,16.936L65.291,16.936L65.291,21.962C65.291,22.43 65.211,22.839 65.05,23.191C64.889,23.542 64.675,23.836 64.408,24.074C64.141,24.312 63.839,24.489 63.503,24.606C63.166,24.723 62.823,24.781 62.471,24.781C62.12,24.781 61.777,24.723 61.44,24.606C61.104,24.489 60.802,24.312 60.535,24.074C60.268,23.836 60.054,23.542 59.893,23.191C59.732,22.839 59.652,22.43 59.652,21.962L59.652,16.936Z" style="fill:rgb(5,66,142);fill-rule:nonzero;"/>
    </g>
    <g transform="matrix(4.16667,0,0,4.16667,-245.45,115.014)">
        <path d="M67.038,16.662L72.404,22.817L72.404,16.936L73.227,16.936L73.227,24.891L67.861,18.757L67.861,24.617L67.038,24.617L67.038,16.662Z" style="fill:rgb(5,66,142);fill-rule:nonzero;"/>
    </g>
    <g transform="matrix(4.16667,0,0,4.16667,-245.45,115.014)">
        <rect x="75.042" y="16.936" width="0.823" height="7.681" style="fill:rgb(5,66,142);fill-rule:nonzero;"/>
    </g>
    <g transform="matrix(4.16667,0,0,4.16667,-245.45,115.014)">
        <path d="M76.838,16.936L77.738,16.936L80.283,22.982L82.653,16.936L83.531,16.936L80.294,25L76.838,16.936Z" style="fill:rgb(5,66,142);fill-rule:nonzero;"/>
    </g>
    <g transform="matrix(4.16667,0,0,4.16667,-245.45,115.014)">
        <path d="M84.471,16.936L89.08,16.936L89.08,17.704L85.294,17.704L85.294,20.228L88.751,20.228L88.751,20.996L85.294,20.996L85.294,23.849L89.08,23.849L89.08,24.617L84.471,24.617L84.471,16.936Z" style="fill:rgb(5,66,142);fill-rule:nonzero;"/>
    </g>
    <g transform="matrix(4.16667,0,0,4.16667,-245.45,115.014)">
        <path d="M93.034,20.612C93.304,20.612 93.546,20.573 93.758,20.497C93.97,20.42 94.146,20.316 94.285,20.184C94.424,20.052 94.53,19.898 94.603,19.723C94.676,19.547 94.713,19.361 94.713,19.164C94.713,18.966 94.676,18.778 94.603,18.599C94.53,18.42 94.424,18.264 94.285,18.132C94.146,18 93.97,17.896 93.758,17.819C93.546,17.743 93.304,17.704 93.034,17.704L91.245,17.704L91.245,20.612L93.034,20.612ZM90.423,16.936L93.089,16.936C93.469,16.936 93.811,16.995 94.115,17.112C94.418,17.229 94.674,17.388 94.883,17.589C95.091,17.79 95.252,18.026 95.366,18.297C95.479,18.567 95.535,18.856 95.535,19.164C95.535,19.449 95.488,19.718 95.393,19.97C95.298,20.222 95.159,20.445 94.976,20.639C94.793,20.833 94.572,20.994 94.312,21.122C94.053,21.25 93.758,21.333 93.429,21.369L95.645,24.617L94.647,24.617L92.452,21.38L91.245,21.38L91.245,24.617L90.423,24.617L90.423,16.936Z" style="fill:rgb(5,66,142);fill-rule:nonzero;"/>
    </g>
    <g transform="matrix(4.16667,0,0,4.16667,-245.45,115.014)">
        <path d="M97.318,22.367C97.318,22.602 97.356,22.819 97.433,23.02C97.51,23.222 97.617,23.395 97.757,23.542C97.895,23.688 98.062,23.803 98.256,23.887C98.449,23.971 98.667,24.013 98.908,24.013C99.15,24.013 99.371,23.975 99.573,23.898C99.773,23.821 99.947,23.713 100.094,23.574C100.24,23.436 100.353,23.272 100.434,23.086C100.514,22.899 100.555,22.697 100.555,22.477C100.555,22.272 100.511,22.093 100.423,21.939C100.335,21.786 100.218,21.652 100.072,21.539C99.925,21.426 99.755,21.323 99.561,21.232C99.367,21.141 99.168,21.055 98.963,20.974C98.678,20.864 98.404,20.753 98.14,20.639C97.877,20.526 97.645,20.389 97.444,20.228C97.242,20.067 97.08,19.875 96.955,19.652C96.831,19.429 96.769,19.146 96.769,18.801C96.769,18.516 96.822,18.249 96.928,18C97.034,17.752 97.18,17.536 97.367,17.353C97.553,17.17 97.778,17.028 98.042,16.925C98.305,16.823 98.594,16.772 98.908,16.772C99.23,16.772 99.525,16.827 99.792,16.936C100.059,17.046 100.288,17.196 100.478,17.386C100.668,17.576 100.814,17.801 100.917,18.061C101.019,18.32 101.071,18.604 101.071,18.911L100.226,18.911C100.226,18.494 100.103,18.162 99.858,17.913C99.613,17.664 99.296,17.54 98.908,17.54C98.521,17.54 98.204,17.655 97.959,17.885C97.714,18.116 97.592,18.421 97.592,18.801C97.592,19.006 97.639,19.18 97.735,19.323C97.829,19.465 97.954,19.59 98.108,19.696C98.261,19.802 98.438,19.897 98.639,19.981C98.841,20.065 99.051,20.151 99.271,20.239C99.549,20.349 99.814,20.462 100.067,20.579C100.319,20.696 100.542,20.837 100.736,21.001C100.929,21.166 101.085,21.365 101.202,21.599C101.319,21.834 101.378,22.126 101.378,22.477C101.378,22.821 101.314,23.134 101.186,23.415C101.057,23.697 100.882,23.941 100.659,24.145C100.436,24.35 100.175,24.507 99.874,24.617C99.574,24.727 99.252,24.781 98.908,24.781C98.565,24.781 98.246,24.721 97.954,24.6C97.661,24.48 97.407,24.312 97.191,24.096C96.975,23.88 96.805,23.625 96.681,23.333C96.556,23.041 96.494,22.719 96.494,22.367L97.318,22.367Z" style="fill:rgb(5,66,142);fill-rule:nonzero;"/>
    </g>
    <g transform="matrix(4.16667,0,0,4.16667,-245.45,115.014)">
        <rect x="102.804" y="16.936" width="0.823" height="7.681" style="fill:rgb(5,66,142);fill-rule:nonzero;"/>
    </g>
    <g transform="matrix(4.16667,0,0,4.16667,-245.45,115.014)">
        <path d="M106.849,17.704L104.6,17.704L104.6,16.936L109.921,16.936L109.921,17.704L107.672,17.704L107.672,24.617L106.849,24.617L106.849,17.704Z" style="fill:rgb(5,66,142);fill-rule:nonzero;"/>
    </g>
    <g transform="matrix(4.16667,0,0,4.16667,-245.45,115.014)">
        <path d="M113.115,21.029L110.482,16.936L111.447,16.936L113.532,20.271L115.617,16.936L116.582,16.936L113.938,21.051L113.938,24.617L113.115,24.617L113.115,21.029Z" style="fill:rgb(5,66,142);fill-rule:nonzero;"/>
    </g>
</svg>
