<?xml version="1.0" encoding="UTF-8" standalone="no"?>
<!DOCTYPE svg PUBLIC "-//W3C//DTD SVG 1.1//EN" "http://www.w3.org/Graphics/SVG/1.1/DTD/svg11.dtd">
<svg width="100%" height="100%" viewBox="0 0 170 170" version="1.1" xmlns="http://www.w3.org/2000/svg" xmlns:xlink="http://www.w3.org/1999/xlink" xml:space="preserve" xmlns:serif="http://www.serif.com/" style="fill-rule:evenodd;clip-rule:evenodd;stroke-linejoin:round;stroke-miterlimit:2;">
    <g transform="matrix(1,0,0,1,0,65)">
        <path d="M17.016,14.176C17.716,14.176 18.066,14.176 18.261,13.954C18.456,13.731 18.406,13.388 18.308,12.702L17.234,5.224C17.158,4.695 17.12,4.429 16.937,4.272C16.753,4.113 16.483,4.113 15.944,4.113L15.133,4.113C14.593,4.113 14.323,4.113 14.139,4.272C13.955,4.431 13.917,4.695 13.842,5.224L12.767,12.702C12.668,13.388 12.619,13.731 12.814,13.954C13.009,14.176 13.359,14.176 14.059,14.176L17.016,14.176Z" style="fill:rgb(255,108,55);fill-rule:nonzero;"/>
        <path d="M10.503,16.735C10.72,16.076 10.828,15.747 10.675,15.494C10.522,15.241 10.177,15.182 9.488,15.062L1.977,13.762C1.444,13.67 1.178,13.625 0.97,13.748C0.763,13.872 0.679,14.127 0.511,14.634L0.261,15.4C0.094,15.909 0.012,16.162 0.106,16.384C0.201,16.606 0.444,16.724 0.929,16.959L7.775,20.282C8.404,20.587 8.717,20.738 8.991,20.623C9.264,20.507 9.373,20.179 9.588,19.519L10.503,16.735Z" style="fill:rgb(255,108,55);fill-rule:nonzero;"/>
        <path d="M10.948,23.662C10.383,23.254 10.098,23.052 9.808,23.119C9.519,23.185 9.355,23.491 9.028,24.105L5.459,30.778C5.206,31.251 5.08,31.487 5.135,31.722C5.19,31.957 5.408,32.114 5.846,32.428L6.502,32.9C6.939,33.214 7.156,33.371 7.399,33.351C7.641,33.329 7.829,33.138 8.204,32.753L13.509,27.328C13.995,26.83 14.238,26.583 14.212,26.288C14.187,25.994 13.904,25.791 13.337,25.383L10.948,23.662Z" style="fill:rgb(255,108,55);fill-rule:nonzero;"/>
        <path d="M17.732,25.385C17.167,25.793 16.882,25.995 16.857,26.29C16.831,26.584 17.074,26.832 17.56,27.33L22.865,32.755C23.24,33.14 23.428,33.331 23.67,33.353C23.913,33.375 24.131,33.217 24.567,32.901L25.223,32.43C25.661,32.116 25.878,31.959 25.934,31.724C25.991,31.489 25.863,31.253 25.61,30.779L22.044,24.105C21.716,23.492 21.554,23.185 21.264,23.12C20.974,23.054 20.692,23.258 20.125,23.664L17.732,25.385Z" style="fill:rgb(255,108,55);fill-rule:nonzero;"/>
        <path d="M21.486,19.523C21.703,20.182 21.81,20.511 22.084,20.626C22.357,20.742 22.673,20.589 23.3,20.283L30.146,16.96C30.631,16.726 30.873,16.608 30.968,16.386C31.063,16.164 30.979,15.909 30.813,15.402L30.563,14.638C30.396,14.129 30.314,13.876 30.104,13.751C29.896,13.627 29.63,13.674 29.098,13.766L21.588,15.066C20.899,15.185 20.555,15.245 20.401,15.498C20.248,15.75 20.356,16.079 20.573,16.738L21.486,19.523Z" style="fill:rgb(255,108,55);fill-rule:nonzero;"/>
    </g>
    <g transform="matrix(1,0,0,1,0,65)">
        <path d="M60.607,15.372C59.429,14.205 57.533,14.205 53.742,14.205L38.387,14.205L38.387,30.504L42.957,30.504L42.957,19.457C42.957,18.603 42.957,18.176 43.225,17.911C43.492,17.646 43.923,17.646 44.785,17.646L53.559,17.646C55.283,17.646 56.144,17.646 56.679,18.176C57.215,18.706 57.215,19.56 57.215,21.268L57.215,30.504L61.785,30.504L61.785,22.173C61.785,18.417 61.785,16.539 60.607,15.372Z" style="fill:rgb(2,58,79);fill-rule:nonzero;"/>
        <path d="M83.355,14.205C85.94,14.205 87.233,14.205 88.035,15C88.839,15.796 88.839,17.076 88.839,19.638L88.839,21.449C88.839,22.644 88.839,23.242 88.464,23.613C88.089,23.984 87.486,23.984 86.279,23.984L70.376,23.984C70.204,23.984 70.118,23.984 70.064,24.037C70.011,24.091 70.011,24.176 70.011,24.347L70.011,25.252C70.011,26.106 70.011,26.533 70.278,26.798C70.546,27.063 70.977,27.063 71.839,27.063L88.839,27.063L88.839,30.504L70.925,30.504C68.34,30.504 67.047,30.504 66.244,29.709C65.441,28.913 65.441,27.632 65.441,25.071L65.441,19.638C65.441,17.076 65.441,15.796 66.244,15C67.047,14.205 68.34,14.205 70.925,14.205L83.355,14.205ZM70.011,20.724L82.715,20.724C83.313,20.724 83.612,20.724 83.832,20.591C83.955,20.516 84.059,20.414 84.134,20.292C84.177,20.222 84.207,20.143 84.227,20.05C84.269,19.852 84.269,19.587 84.269,19.185C84.269,18.924 84.269,18.721 84.257,18.556C84.243,18.347 84.209,18.2 84.134,18.078C84.059,17.956 83.955,17.854 83.832,17.779C83.612,17.646 83.313,17.646 82.715,17.646L71.839,17.646C70.977,17.646 70.546,17.646 70.278,17.911C70.011,18.176 70.011,18.603 70.011,19.457L70.011,20.724Z" style="fill:rgb(2,58,79);"/>
        <path d="M111.393,10.289C111.322,10.384 111.322,10.511 111.322,10.765L111.322,13.842C111.322,13.912 111.322,13.968 111.319,14.013C111.313,14.078 111.3,14.12 111.269,14.151C111.245,14.175 111.215,14.188 111.175,14.195C111.123,14.205 111.054,14.205 110.957,14.205L97.978,14.205C95.393,14.205 94.1,14.205 93.298,15C92.494,15.796 92.494,17.077 92.494,19.638L92.494,25.071C92.494,27.632 92.494,28.913 93.298,29.709C94.1,30.504 95.393,30.504 97.978,30.504L115.892,30.504L115.892,8.771L111.828,10.076C111.585,10.154 111.463,10.193 111.393,10.289ZM110.55,27.022C110.294,27.063 109.956,27.063 109.495,27.063L98.892,27.063C98.03,27.063 97.6,27.063 97.332,26.798C97.064,26.533 97.064,26.106 97.064,25.252L97.064,19.457C97.064,18.603 97.064,18.176 97.332,17.911C97.6,17.646 98.03,17.646 98.892,17.646L111.322,17.646L111.322,25.252C111.322,26.106 111.322,26.533 111.055,26.798C110.93,26.921 110.771,26.987 110.55,27.022Z" style="fill:rgb(2,58,79);"/>
        <path d="M125.032,30.504C122.447,30.504 121.154,30.504 120.352,29.709C119.548,28.913 119.548,27.632 119.548,25.071L119.548,23.26C119.548,22.777 119.548,22.391 119.574,22.079C119.61,21.619 119.699,21.317 119.923,21.096C120.105,20.916 120.339,20.824 120.668,20.776C120.858,20.748 121.08,20.735 121.342,20.73C121.566,20.724 121.819,20.724 122.108,20.724L138.01,20.724C138.069,20.724 138.119,20.724 138.159,20.722C138.191,20.721 138.217,20.718 138.24,20.713C138.275,20.705 138.301,20.692 138.323,20.671C138.348,20.646 138.362,20.613 138.369,20.567C138.373,20.544 138.374,20.518 138.375,20.488L138.376,20.439L138.376,19.457C138.376,19.264 138.376,19.093 138.374,18.941C138.368,18.703 138.357,18.51 138.324,18.351C138.302,18.243 138.272,18.151 138.228,18.071C138.196,18.012 138.157,17.959 138.108,17.911C137.84,17.646 137.41,17.646 136.548,17.646L119.548,17.646L119.548,14.205L137.462,14.205C140.047,14.205 141.34,14.205 142.142,15C142.947,15.796 142.947,17.076 142.947,19.638L142.947,30.504L125.032,30.504ZM138.376,23.984L125.671,23.984C125.073,23.984 124.775,23.984 124.555,24.118C124.505,24.148 124.459,24.182 124.417,24.22C124.399,24.237 124.379,24.255 124.362,24.273C124.348,24.289 124.333,24.306 124.32,24.323C124.295,24.353 124.273,24.384 124.253,24.417C124.118,24.635 124.118,24.931 124.118,25.524C124.118,25.933 124.118,26.201 124.163,26.399C124.183,26.488 124.211,26.563 124.253,26.631C124.328,26.753 124.432,26.855 124.555,26.93C124.775,27.063 125.073,27.063 125.671,27.063L136.548,27.063L136.9,27.062C137.04,27.061 137.166,27.059 137.28,27.053C137.681,27.033 137.931,26.974 138.108,26.798C138.211,26.696 138.275,26.57 138.314,26.406C138.376,26.142 138.376,25.778 138.376,25.252L138.376,23.984Z" style="fill:rgb(2,58,79);"/>
        <path d="M151.164,34.231C151.16,34.279 151.151,34.319 151.137,34.354C151.128,34.378 151.117,34.4 151.102,34.42C151.032,34.515 150.91,34.555 150.667,34.633L146.602,35.937L146.602,14.205L164.516,14.205C167.1,14.205 168.393,14.205 169.197,15C170,15.796 170,17.077 170,19.638L170,25.071C170,27.632 170,28.913 169.197,29.709C168.393,30.504 167.1,30.504 164.516,30.504L151.538,30.504C151.487,30.504 151.445,30.504 151.407,30.506C151.371,30.507 151.34,30.509 151.315,30.514C151.277,30.522 151.248,30.535 151.226,30.557C151.197,30.585 151.184,30.622 151.178,30.676C151.171,30.724 151.171,30.786 151.171,30.867L151.171,34.083C151.17,34.14 151.168,34.189 151.164,34.231ZM151.916,17.691C151.709,17.728 151.559,17.793 151.439,17.911C151.171,18.176 151.171,18.603 151.171,19.457L151.171,27.063L163.602,27.063C164.464,27.063 164.895,27.063 165.162,26.798C165.43,26.533 165.43,26.106 165.43,25.252L165.43,19.457C165.43,18.603 165.43,18.176 165.162,17.911C164.895,17.646 164.464,17.646 163.602,17.646L153,17.646C152.686,17.646 152.428,17.646 152.215,17.659C152.103,17.665 152.005,17.676 151.916,17.691Z" style="fill:rgb(2,58,79);"/>
    </g>
</svg>
