<?xml version="1.0" encoding="UTF-8" standalone="no"?>
<!DOCTYPE svg PUBLIC "-//W3C//DTD SVG 1.1//EN" "http://www.w3.org/Graphics/SVG/1.1/DTD/svg11.dtd">
<svg width="100%" height="100%" viewBox="0 0 100 100" version="1.1" xmlns="http://www.w3.org/2000/svg" xmlns:xlink="http://www.w3.org/1999/xlink" xml:space="preserve" xmlns:serif="http://www.serif.com/" style="fill-rule:evenodd;clip-rule:evenodd;stroke-linejoin:round;stroke-miterlimit:2;">
    <g transform="matrix(1,0,0,1,0,27)">
        <path d="M61.381,22.999C57.524,22.999 54.397,19.872 54.397,16.015L54.397,7.378C54.397,3.52 51.27,0.394 47.413,0.394L7.562,0.394C3.705,0.394 0.578,3.52 0.578,7.378L0.578,16.015C0.578,19.872 3.705,22.999 7.562,22.999L47.412,22.999C51.269,22.999 54.396,26.127 54.396,29.984L54.396,38.621C54.396,42.477 57.523,45.606 61.38,45.606L92.437,45.606C96.294,45.606 99.421,42.477 99.421,38.621L99.421,29.984C99.421,26.127 96.294,22.999 92.437,22.999L61.381,22.999" style="fill:rgb(30,22,1);fill-rule:nonzero;"/>
        <path d="M68.984,30.297C68.984,29.531 69.388,29.142 70.14,29.142C70.906,29.142 71.31,29.532 71.31,30.297L71.31,38.32C71.31,39.088 70.906,39.477 70.14,39.477C69.751,39.477 69.347,39.289 69.078,38.953L64.455,33.281L64.455,38.32C64.455,39.088 64.053,39.477 63.287,39.477C62.533,39.477 62.131,39.087 62.131,38.32L62.131,30.297C62.131,29.531 62.533,29.142 63.287,29.142C63.689,29.142 64.053,29.304 64.43,29.761L68.985,35.365L68.985,30.297" style="fill:white;fill-rule:nonzero;"/>
        <path d="M81.094,29.236C81.834,29.236 82.196,29.612 82.196,30.339C82.196,31.076 81.835,31.454 81.094,31.454L76.565,31.454L76.565,33.175L79.387,33.175C80.127,33.175 80.491,33.536 80.491,34.276C80.491,35.016 80.128,35.379 79.387,35.379L76.565,35.379L76.565,37.153L81.094,37.153C81.834,37.153 82.196,37.529 82.196,38.268C82.196,38.994 81.835,39.371 81.094,39.371L75.395,39.371C74.643,39.371 74.241,38.98 74.241,38.215L74.241,30.394C74.241,29.627 74.643,29.238 75.395,29.238L81.094,29.238" style="fill:white;fill-rule:nonzero;"/>
        <path d="M86.752,38.32L86.752,31.454L84.83,31.454C84.078,31.454 83.715,31.077 83.715,30.339C83.715,29.612 84.078,29.236 84.83,29.236L91.014,29.236C91.752,29.236 92.426,29.612 92.426,30.339C92.426,31.077 91.752,31.454 91.014,31.454L89.078,31.454L89.078,38.32C89.078,39.089 88.674,39.476 87.922,39.476C87.156,39.477 86.752,39.089 86.752,38.32" style="fill:white;fill-rule:nonzero;"/>
        <path d="M12.61,13.766C12.61,13.243 11.951,13.028 11.104,12.772L9.411,12.261C8.188,11.899 7.113,11.037 7.113,9.532C7.113,7.718 8.739,6.481 10.944,6.481C12.65,6.481 14.667,7.073 14.667,8.162C14.667,8.833 14.331,9.25 13.712,9.25C13.39,9.25 13.107,9.143 12.785,9.036C12.314,8.86 11.736,8.659 10.944,8.659C10.298,8.659 9.492,8.914 9.492,9.425C9.492,9.882 9.854,10.097 10.647,10.338L12.543,10.916C13.82,11.306 14.989,12.072 14.989,13.833C14.989,15.716 13.227,16.925 10.97,16.925C9.074,16.925 6.856,16.333 6.856,15.245C6.856,14.573 7.248,14.156 7.918,14.156C8.268,14.156 8.591,14.249 8.953,14.371C9.464,14.546 10.069,14.747 10.97,14.747C11.736,14.747 12.61,14.398 12.61,13.766" style="fill:white;fill-rule:nonzero;"/>
        <path d="M24.128,7.69C24.128,6.924 24.531,6.536 25.284,6.536C26.05,6.536 26.453,6.925 26.453,7.69L26.453,12.126C26.453,15.043 24.504,16.924 21.843,16.924C19.196,16.924 17.247,15.043 17.247,12.126L17.247,7.69C17.247,6.924 17.65,6.536 18.402,6.536C19.169,6.536 19.572,6.925 19.572,7.69L19.572,12.126C19.572,13.699 20.526,14.64 21.843,14.64C23.174,14.64 24.128,13.7 24.128,12.126L24.128,7.69" style="fill:white;fill-rule:nonzero;"/>
        <path d="M33.631,13.659L31.507,13.659L31.507,15.716C31.507,16.482 31.104,16.87 30.338,16.87C29.584,16.87 29.182,16.481 29.182,15.716L29.182,7.785C29.182,7.019 29.584,6.629 30.338,6.629L33.67,6.629C35.901,6.629 37.446,8.094 37.446,10.204C37.446,11.494 36.855,12.476 35.86,13L36.936,15.15C37.042,15.365 37.082,15.567 37.082,15.768C37.082,16.44 36.317,16.87 35.738,16.87C35.308,16.87 35.001,16.615 34.784,16.132L33.631,13.659M31.507,8.847L31.507,11.548L33.469,11.548C34.356,11.548 35.055,11.146 35.055,10.204C35.055,9.25 34.356,8.847 33.469,8.847L31.507,8.847Z" style="fill:white;fill-rule:nonzero;"/>
        <path d="M42.285,13.215L42.285,15.716C42.285,16.482 41.895,16.87 41.129,16.87C40.376,16.87 39.974,16.481 39.974,15.716L39.974,7.785C39.974,7.019 40.376,6.629 41.129,6.629L46.693,6.629C47.432,6.629 47.795,7.006 47.795,7.732C47.795,8.47 47.433,8.848 46.693,8.848L42.285,8.848L42.285,10.997L45.04,10.997C45.779,10.997 46.143,11.374 46.143,12.113C46.143,12.839 45.78,13.215 45.04,13.215L42.285,13.215" style="fill:white;fill-rule:nonzero;"/>
    </g>
</svg>
